<svg xmlns="http://www.w3.org/2000/svg" viewBox="0 0 64 64"><defs><linearGradient id="b" x1="0" y1="0" x2="1" y2="1"><stop offset="0" stop-color="#5A9FD4"/><stop offset="1" stop-color="#306998"/></linearGradient><linearGradient id="y" x1="0" y1="0" x2="1" y2="1"><stop offset="0" stop-color="#FFE873"/><stop offset="1" stop-color="#FFD43B"/></linearGradient></defs><path fill="url(#b)" d="M31.7 4C20.6 4 21.3 8.8 21.3 8.8l.01 5h10.5v1.5H17.2S10 14.5 10 25.7s6.3 10.8 6.3 10.8h3.7v-5.3s-.2-6.3 6.2-6.3h10.4s6 .1 6-5.8v-9.7S43.6 4 31.7 4zM26 7.4c1 0 1.9.9 1.9 1.9 0 1.1-.9 1.9-1.9 1.9-1 0-1.9-.9-1.9-1.9 0-1 .9-1.9 1.9-1.9z"/><path fill="url(#y)" d="M32.3 60c11 0 10.4-4.8 10.4-4.8l-.01-5h-10.5v-1.5h14.6s7.2 0 7.2-11.2-6.3-10.8-6.3-10.8h-3.7v5.3s.2 6.3-6.2 6.3H27.4s-6-.1-6 5.8v9.7s-1 6.2 10.9 6.2zm6-3.4c-1 0-1.9-.9-1.9-1.9 0-1.1.9-1.9 1.9-1.9s1.9.9 1.9 1.9c0 1-.9 1.9-1.9 1.9z"/></svg>
